<?xml version="1.0" encoding="utf-8"?>
<!-- Generator: Adobe Illustrator 26.0.0, SVG Export Plug-In . SVG Version: 6.00 Build 0)  -->
<svg version="1.1" id="Layer_1" xmlns="http://www.w3.org/2000/svg" xmlns:xlink="http://www.w3.org/1999/xlink" x="0px" y="0px"
	 viewBox="0 0 342.6 426.8" style="enable-background:new 0 0 342.6 426.8;" xml:space="preserve">
<style type="text/css">
	.st0{fill:#F0A80D;}
</style>
<path class="st0" d="M22.1,340.2L22.1,311L7.6,413.4c10.7,0.3,21.4,0.6,34.1,0.5C35.1,383.3,22.2,354.3,22.1,340.2z"/>
<path class="st0" d="M148.1,261.2l-37.5,140.4c22.2,0.6,44.3,1.3,68.3,1.8C165,356.2,151,308.9,148.1,261.2z"/>
<path class="st0" d="M237.1,201.3c0.7,70.2,1.4,140.3,0.1,210.5c17.8-0.3,35.6-0.6,59.1-1.3C280.3,341,264.5,271.4,237.1,201.3z"/>
<path d="M58.2,269.1c-4.5-1.2-9-2.2-13.5-2.8c1.1,0.4,2.2,0.7,3.2,1.1c11.9,4.9,26.9,9,33.5,21.6c3,7.8,2.4,16.4,1.7,24.6
	c-1.3,11.3-3.2,22.4-5.9,33.4c-5.5,25.3-16.1,54.3-26.9,61.7c-3,3.3-13.5,2.4-18.3,1.6C18,407.3,13.9,405,14,395.9
	c3.9-46,3.3-92.1,4.8-138.2C12.5,293.7,8.7,329.9,4.1,366c-0.8,5.8-0.4,3.1-1.1,8.3c-1,12.2-6.6,26,0.7,37.1
	c6.3,9.4,18.1,12.9,28.8,14.4c16,3.1,27.8-1.4,37-15c15.8-26.5,18.9-57,21.9-84.8C93.1,295.5,92,276.8,58.2,269.1z"/>
<path d="M193.3,215.3c-1.4-6.1-6.3-10.8-12.4-11.9c-11.8-3.3-24.1-1.9-36.1-1.2c10.6,1.2,19.9,1.3,30.1,4.4c11,3,11.7,6.7,12.5,15
	c0.9,12.6,0.6,25.3,0.3,38c-0.8,38.6-10.4,118.4-28.4,138c-3.8,2.4-1.2,1.3-5.8,2.3c-0.1,0-0.2,0-0.4,0c-12.7-0.3-21.1-2.2-29.5-6.9
	c-0.3-0.2-0.5-0.4-0.6-0.5c-0.7-0.5-1.3-1.1-1.8-1.7c0,0,0,0-0.1-0.1c-0.2-0.3-0.4-0.6-0.5-0.9c-0.2-0.6-0.4-1.2-0.5-1.9
	c-0.1-1.3-0.2-2.7-0.2-4c2.4-60.4-0.2-120.9,1.8-181.3c-8.5,48.7-12.4,98.1-16.1,147.4c-0.8,10-1.7,20-2.3,29.9
	c-0.6,7.9-0.1,16.7,5.7,22.8c10.6,11.5,34.9,15.9,49.9,13.8c13.6-2.7,21-15.5,25.2-27.7c4.5-11.6,7.8-23.7,10-36
	C201.1,307.6,202.4,260.5,193.3,215.3z"/>
<path d="M340.8,219.9c-1.8-18.9-1.6-38.8-9.2-56.5c-10.6-22.8-39.5-24.9-61.6-27.1c15.6,4.4,29.6,7.7,42.5,16.6
	c14,10.7,12.8,24.2,13.8,39.8c0.8,24.3-0.1,48.7-1,73c-1.7,50.4-1.7,124.6-15.1,137.7c-4.4,1.3-23.5,2.3-35.7,3.2
	c-12.5,0.5-22.6,1.9-30.1-0.4c-0.6-9.6,0.4-56.8,0.7-79.7c0.9-67.6-2.2-135.2,1-202.8c-11.8,63.1-16,127.2-18.3,191.2
	c-0.8,20.7-1.1,41.4-1.4,62.1c0.2,11.5-1.1,23,0.4,34.4c4.3,15.8,24.4,14.3,37.4,14c12.7-0.7,25.4-1.5,38.1-2.6
	c6.1-0.7,12.7-0.6,17.9-4.2c8.1-6.1,11.7-16.7,14.6-26.1c5.3-24.5,5.9-49.7,6.9-74.6C343.1,285.3,342.8,252.6,340.8,219.9z"/>
<path d="M232.7,17.4c-9.9-15.3-29.1-17.8-45.9-17.4c-19.3,0.1-38.5,2.7-57.4,6.7c-8.5,2.3-17.9,3.9-24.9,9.4
	c-4.5,4.5-3.2,12.3,2.1,15.5c3.1,1.7,6.6,1.5,10,1.5c21,0,42.1-0.4,63.1-0.6c6-0.1,10.3,0,13.9,0.3c-5,5.3-10.3,10.2-15.6,15.1
	c-57.4,50.8-112.7,104-163,161.9c44.8-37.3,89.6-74.6,134.4-112c17.8-15,35.4-30.3,52.4-46.2c5.5-5.5,12.1-10.6,14.9-18
	c1.2-4.1,0.9-7.4-0.3-10.1c0.1,0.1,0.2,0.1,0.3,0.2c9.5,6.3,12.4,33.6,8.3,62.3c-2,13.7-9,42.7-14.7,61.1c-1.5,4.8-3,9.6-4.7,14.3
	c9.8-18.3,18.2-37.3,25-57C238.6,80.9,247.6,39.3,232.7,17.4z"/>
<path class="st0" d="M136.7,131.6l80.2-74.7C223,98.8,181.4,140.4,136.7,131.6z"/>
</svg>
