<?xml version="1.0" encoding="utf-8"?>
<!-- Generator: Adobe Illustrator 26.0.0, SVG Export Plug-In . SVG Version: 6.00 Build 0)  -->
<svg version="1.1" id="Layer_1" xmlns="http://www.w3.org/2000/svg" xmlns:xlink="http://www.w3.org/1999/xlink" x="0px" y="0px"
	 viewBox="0 0 464.6 414.7" style="enable-background:new 0 0 464.6 414.7;" xml:space="preserve">
<style type="text/css">
	.st0{fill:#F0A80D;stroke:#000000;stroke-miterlimit:10;}
</style>
<path class="st0" d="M66,109.9C51,124.5,53,151,66.7,166.8s36.1,21.9,57,20.7s40.9-8.5,59.4-12.9l-3.6-58.8
	C139.2,116.2,99,116.6,66,109.9z"/>
<path d="M460.3,229c-3-14.6-5-29.3-7.9-43.8c-4.1-20.7-4.5-46.2-7.7-70.7c-2.8-18.6-6.8-37.1-13.5-54.7c-4-11.2-8.7-22.1-15.9-31.7
	C405.9,15.9,393.6,4.5,378.2,1c-11.8-2.4-23.8,0.1-35.6,1.7c-22.5,3.5-46.2,6.4-72.1,7c-22.9,1-45.9,0.7-68.9,0.9
	c-28,0.7-56,0.7-84,1.8c-12.6,0.5-25.1,2.7-35.9,3.8c-12.4,1.2-24.8,1-37.2,1.6c-2.6,0.2-5.1,0.5-7.7,0.8c2.9,0.1,5.8,0.2,8.8,0.4
	C18.4,22.8,7.2,26.8,3.4,58.7c-1,11.5-0.4,23-0.1,34.5c0.3,9.7,0.2,19.5,0.7,29.2c1.5,24.7,3.6,49.4,1.7,74.1
	c-0.4,9.4-0.6,18.9-1.6,28.3C2.9,237,0.9,249,0.4,261.2c-0.1,6.1-1,12.4,0.4,18.4c3.4,10.8,15.5,13.6,25.1,16.5
	c11.6,3.6,23.2,7.3,35.2,9.3c9.2,1.3,18.5,1.7,27.7,1.2c21.8-1,43.8-0.7,65.4-4.2c12.9-1.9,29.9-2.9,40.9-1.6
	c-2.4,17.7-0.9,35.5,0.8,53.2c0.8,4.8,0.8,9.9,1.4,14.8c-2.7,7.8-5.3,15.6-8,23.4c-1.2,3.6-2.4,7.2-3.6,10.8c-1,2.8-1.7,6.2,0.6,8.6
	c2.8,3,7.3,2.6,11.1,2.9c6,0.2,12.1,0.1,18.1-0.4c8.3-0.6,20.1-3,23.9-3.4c-0.5,0.1-1,0.1-1.4,0.2c8.6-1.1,17.4-1.2,26.1-2.2
	c11.5-1.4,23-2.3,34.5-3.5c4.9-0.8,13.6,0.1,13-7.1c-0.7-12.6-11.6-21-20-29.2c-2.7-2.7-5.6-5.2-8.2-7.9c1.2-5.9,1.8-11.8,1.8-17.8
	c0.1-13.1-1.1-26.1-2.2-39.1c0-0.2,0-0.3-0.1-0.5c4.1-0.6,8.1-1.2,12.2-1.8c16.6-3,40.6-2.3,61.4-3.1c28.1-1.7,74.6,4.5,95.5-16
	c6.9-6,12.4-14,12.6-23.4C465.2,249.1,461.7,239.1,460.3,229z M195.4,300.9c1.5,0.2,2.8,0.4,4,0.6c14.6,2.7,29.3,6,44.2,5.9
	c13,0,25.9-1.8,38.8-3.7c-1.6,17.6-2.1,35-5.4,50.3c-2,9-4.7,14.8-10,18.8c-1.6,1.2-6.1,1.2-12.9,1.4c-10.4,0.2-20.7,1-30.9,2.4
	c-8.5,1-12.6,1.1-14.5-0.8c-2.1-3.4-1.3-2-2.4-5.2c-1.4-6-2.2-12.2-3.6-18.3C199.1,334,195.8,318.6,195.4,300.9z M283.5,362.1
	c7.4,11.6,20.7,24,21.2,35.1c-7.9,0.4-15.8,0.3-23.7,0.6c-7,0.1-14,0.7-21,1c-7.5,0.4-15,0.4-22.5,1.5c-16.8,2.9-30.6,6.5-45.4,6.1
	c0.1-0.4,0.2-0.8,0.2-1.2c2.3-10.5,4.1-21.1,5.9-31.7c0.5,2.3,1.4,4.5,2.5,6.5c4.7,8.2,15.4,7.2,23.5,6.4c9.7-1.1,19.4-1.8,29.2-2.5
	c7-0.7,15.2-0.1,20.6-5.5c4.6-4.6,7.8-10.4,9.3-16.8C283.3,361.8,283.4,361.9,283.5,362.1z M454.9,255.1c0,1.1,0,2.2-0.1,3.3
	c0,0.7-0.1,1.5-0.2,2.2c-1.5,7.1-2.2,7.8-7.7,13.6c-4.6,4.2-4.2,4.4-9.2,7.2c-14.9,7.6-36.6,7.3-58.3,7.5c-15.6,0-31.2,0.6-46.8,0.8
	c-12.1,0.1-24.3,0.3-36.3,2.1c-21.6,2.8-38.1,6.9-61.2,5.5c-12.2-0.4-22.8-3.7-37.2-5.8c-19.3-2.8-38.7,0.7-57.9,3
	c-14.9,1.7-29.9,1.3-44.8,2.2c-19.2,1-32.5,0.5-50-4.7c-7.7-2.1-15.3-4.6-22.9-6.9c-8.1-2.7-9.9-3.2-12.5-7.9
	c-1.5-6.8,1.6-36,3.6-51.5c1.3-11.4,1.3-23,2-34.5c1.2-20.1-0.1-40.1-1.4-60.2c-1-14.4-0.8-28.9-2-43.3c-1-18.4-5.1-41,6.1-56
	c8-7.5,19.1-9.4,29.4-12.5c0.1,0,0.2,0,0.3,0c11.3,1.2,22.6,2.5,34,2.7c10.1,0.1,20.2-0.8,30.3-0.7c16.4,0.1,32.9,0.8,49.3,0.5
	c19.2-0.3,38.4-1.1,57.6-1.1c30-0.2,60.1-0.2,90-3.2c22.2-2,48.1-8,63.5-6.8c18.5,2.4,35.6,21.6,44.2,42.1c1.3,3.4,8.7,22.2,11,31.1
	c3.1,11.6,5.5,23.4,7.2,35.3c2.7,21.5,3.9,53.1,9.8,77.8c2.9,15.4,5.6,30.8,8.4,46.2C453.8,249.1,455.1,251.2,454.9,255.1z"/>
<path d="M34.8,35.8c-9,0.2-9,13.5,0,13.7C43.8,49.3,43.8,36,34.8,35.8z"/>
<path d="M378.9,53.5c-17.9-4.5-36.5-2.7-54.8-2.9c-33,0.2-65.9,3.1-98.6,7.5c-21,2.5-42.1,4.2-63.2,3.5c-16.9-0.4-33.8-1.6-50.6-0.8
	c-28.1,1.6-56.3,4.2-84,9.9c30.6-2,61.3-0.7,91.9,0.1c22.7,1.3,45.5,3.3,68.2,2.4c21.4-0.9,42.7-3.8,64-6.2
	c22.7-2.5,45.6-4.2,68.3-6.7c20-1.4,40.8-6.3,60.4-3.9c4.5,0.7,8.9,1.9,13.4,2.6C388.9,57.1,384.1,54.8,378.9,53.5z"/>
<path d="M56.4,35.5c-9,0.2-9,13.5,0,13.7C65.4,49,65.4,35.7,56.4,35.5z"/>
<path d="M78.8,33c-9,0.2-9,13.5,0,13.7C87.8,46.5,87.8,33.2,78.8,33z"/>
<path d="M172.9,126.3c-0.9-6.3-2-12.5-3.5-18.7c-1.2-4.9-3.3-10.5-8.6-12.2c-6.5-1.9-13.3-0.8-19.9,0.3c-10.4,1.6-15.1,2.6-24.9,3.2
	c-21.5,1.6-52.6,1.2-69.3,4.5c13.5,0,27,1.1,40.4,2c13.2,0.8,26.4,1.7,39.6,0.9c8.1-0.5,16.2-1.9,24.4-2.3c4.2,0.1,2.8-0.2,6.6,0.8
	c2.7,2.7,6.3,27.4,7.2,37.9c0.7,8.1-1.1,14.5-2.1,16c-0.8,0.2-1.8,0.3-2.2,0.4c0.2,0,0.4-0.1,0.8-0.1c-0.6,0.1-1.2,0.2-1.8,0.2
	c0.3,0,0.5-0.1,0.6-0.1c-0.2,0-0.4,0-0.7,0.1c-9.2,0.8-18.5,1-27.7,0.4c-3.9-0.2-7.8-0.8-11.7-1c-4.8,0-9.6,0.3-14.4,0.9
	c-17.2,1.7-45.4,10.4-58.1,3.5c-0.1,0-0.1-0.1-0.2-0.1c-0.6-0.7-0.6-0.4-0.9-1.1c-0.1-0.1-0.1-0.2-0.1-0.3
	c-1.7-6.7-1.8-14.5-2.7-22.9c-0.6-8.2-2.5-16.2-4.2-24.3c-0.9-4.8-1.2-9.8-2-15c0.1,5.1-0.2,10.2,0.2,15.2
	c0.7,8.1,1.8,16.3,1.5,24.5c-0.1,6.2-0.2,12.4,0,18.5c0.2,3.6,0.5,7.7,3.4,10.2c13.4,11.6,49.2,2.5,60.8,1.4
	c8.6-1.3,17.4-1.4,26.1-0.2c9.4,0.7,18.8,0.8,28.2,0.1c4.1-0.5,8.8-0.1,12-3.1C178.9,155.2,174.5,139.1,172.9,126.3z"/>
<path d="M160.7,159C160.3,159,160.4,159,160.7,159z"/>
<path d="M160.3,159C160.8,159,160.8,159,160.3,159z"/>
<path d="M334.8,97.4c-17.7,0.5-35.5,0.1-53.2,1.3c-13.5,1-26.9,3.6-40.2,6.4c27.5-1.4,55.4-0.2,82.6-5.1c4.4-0.8,8.8-1.8,13.2-2.7
	C336.4,97.4,335.6,97.4,334.8,97.4z"/>
<path d="M337.5,126.1c-10.6-3.9-22.1-1.8-33.1-2c-9.9,0.2-19.7,1-29.5,1.5c-8.7,0.3-17.5,0.5-26.1,1.8c16.3,1.2,32.5,3.9,48.8,2.4
	c7.9-0.5,15.8-1.5,23.7-2.7c5.4-0.8,9.2-1.6,15.4-1C337.1,126.1,338.7,126.5,337.5,126.1z"/>
<path d="M252.8,156.9c11.4,0.4,22.9,1.3,34.4,0.8c17.8-1.2,35.4-4.2,52.5-8.9C307.8,149.3,283.3,152.5,252.8,156.9z"/>
<path d="M350.7,191.9c-24.5-0.6-48.9-5-73.5-3.9c-25.6,0.1-44.8,5.6-68.1,6.2c-20.3,1-40.6-0.7-60.9,0.6
	c-14.4,1.1-28.6,3.2-42.9,4.8c-17.4,1.9-34.6,5.3-51.4,10.4c14.8-2.4,29.7-3.9,44.7-4.3c16.1-0.2,32.3-1,48.4-1.4
	c21.8,0.1,43.5,1.9,65.3,0.7c26.4-1.2,45.5-6.1,70.4-7.5c23-2.3,46.2-0.7,69.1-3.7c4.3-0.5,8.7-1.1,13-1.8
	C360.1,192.1,355.4,192,350.7,191.9z"/>
<path d="M341.1,215.9c-20.9,0.1-45.2,4.8-62.2,6.8c-18.5,2.2-37.1,2.8-55.7,3c-30.4,0.5-60.6,2.9-90.9,4.6
	c-12,0.5-23.9,0.8-35.9,1.4c-9.5,0.5-19,1.7-28,5.1c9.5-2.4,19.4-2.3,29.1-1.7c12.6,0.8,25.2,1.9,37.8,2.3
	c32.2,1.1,64.5-0.6,96.7-0.8c17.8-0.3,35.6-2.3,53.1-6c19.9-4.4,39.4-10.4,59.6-13.3c3.1-0.5,6.2-1,9.3-1.4
	C349.7,215.8,345.4,215.8,341.1,215.9z"/>
<path d="M342.1,249.2c-20,1.2-40.1,1.4-60,2.8c-25.7,2.6-51.5,3-77.3,4.3c-20,0.9-39.9,1.8-59.9,2.3c-17.7,1.2-35.7,1.9-52.9,6.9
	c9.4-1.4,18.9-1.8,28.4-1.3c11.7,0.2,23.4,0.8,35,1.8c16.5,1.4,33.1,1.7,49.7,1.6c26.7-0.2,53.4-2,79.6-7c19.1-3,38.3-5.5,57.2-9.9
	c2.6-0.5,5.3-0.9,8-1.1C347.4,249.2,344.8,249.1,342.1,249.2z"/>
</svg>
