<?xml version="1.0" encoding="utf-8"?>
<!-- Generator: Adobe Illustrator 26.0.0, SVG Export Plug-In . SVG Version: 6.00 Build 0)  -->
<svg version="1.1" id="Layer_1" xmlns="http://www.w3.org/2000/svg" xmlns:xlink="http://www.w3.org/1999/xlink" x="0px" y="0px"
	 viewBox="0 0 761.9 586.1" style="enable-background:new 0 0 761.9 586.1;" xml:space="preserve">
<style type="text/css">
	.st0{fill:#F0A80D;}
</style>
<path class="st0" d="M549.6,67.7C538.1,74.8,526.4,82,517,91.6c-25.8,26.3-31.1,69.3-15.6,102.7c15.4,33.4,49.2,56.7,85.5,62.9
	c24.1,4.1,51.9,0,67.4-18.9c8-9.7,11.8-22,15.1-34.1c8.1-29.8,13.8-60.1,17.2-90.8c2.2-19.9,12.9-66.6,2.8-84.7
	C668.9-7.9,573.3,53.2,549.6,67.7z"/>
<path d="M682.8,443.9c-0.3-0.8-0.6-1.5-0.9-2.3c2.6-1.5,4.7-3.5,6.3-6c6.1-10.1,6.5-22.7,1-33.2c-4-7.5-14.6-19.8-23.2-11.7
	c-3.4,4.3-3.6,10-4.4,15.2c-0.6-0.5-1.1-0.9-1.7-1.4c-4.7-3.4-10.4-4.7-16.1-5.3c-7.9-0.9-15.7-2-23.6-2.5c0.6,0,1.1,0.1,1.7,0.2
	c-7.9-1-16-1.3-24-1.6c-15.9-0.5-31.8,2.5-47.7,2.3c-2.9-4.8-6.5-16.6-12.6-30.6c-6.4-14.7-15.1-28.7-26.7-39.9
	c-9.5-8.5-20.6-14.8-31.9-20.6c-8.8-4.5-18.1-8.4-28.1-9c-15.3-0.9-30.7,1.1-46,1.9c-22.9,1.4-45.8,2.8-68.7,5
	c-25.4,2-51.1,3.6-75.9,9.8c-11.5,3.3-23.9,6-33.3,13.9c-15.4,16.9-22.6,39.6-34.8,58.8c-9.6,15.8-13,22-19.8,26.4
	c-9.7,1.7-32.2,8.2-45.1,14.9c-5,2.2-10.1,4.5-13.9,8.6c-4.3,4.1-5,10.3-3.7,15.9c0.9,6.5,2.2,13,3.6,19.4c0.1,0.6,0.2,1.3,0.4,1.9
	c-5.6,0.5-11.3,0.5-17,0.2c-2.8,0-6.1-0.9-8.4,1.1c-2.5,2.6-2.5,6.7-2.7,10.1c-0.1,5-0.6,10.1,0.6,14.9c1.8,6.1,9.4,6,14.6,6.1
	c6,0,11.9-0.4,17.9-1.1c0.3,2.2,0.5,4.4,0.8,6.7c0.1-2.3,0.2-4.6,0.4-6.8c1.5-0.2,3-0.6,4.4-1.1c-1.4-0.2-2.9-0.3-4.4-0.5
	c0.7-12.7,0.6-25.4-0.2-38.1c-0.1-6.2-1.1-14,0.2-19.4c0.4-0.1,1.2-1.4,2-1.8c0.5-0.4,0.4-0.3-0.1,0.1c-0.7,0.6,0,0,0.4-0.2
	c0.5-0.3,1-0.6,1.6-0.9c8-3.3,25.7-8.5,38.2-10.4c4.8-1.1,9.8-0.4,18.2-2.9c9.1-3.4,15.9-10.9,21.9-18.3c8.1-10,15.6-20.5,22.5-31.4
	c6.2-9.8,12-19.8,18.8-29.2c0.6-0.6,1.2-1.3,1.8-1.8c0.7-0.4,1.4-0.8,2.1-1.1c30.5-9.7,49.4-11,80.2-12.7
	c-1.6,18.1-2.8,36.2-4.5,54.3c0,0,0.1-0.7,0.1-1l0,0.1c-0.2,2.6-0.8,5.2-1.8,7.6c-1.1,1.3-2.8,2-4.5,2.7c-8.4,3.1-12.9,3.7-21.4,3.4
	c-18.5-1.3-37.1-0.8-55.5,1.3c-3.7,0.4-7.4,0.8-11.2,1.3c17.6,3.1,34.1,4.6,52.3,6.9c0.6,0.1,2.4,0.3,1.7,0.2
	c-0.4-0.1-0.4-0.1,0.1,0c6.6,0.9,13.2,2.3,19.9,2.2c10.4-0.6,23.4-2.5,29.1-12.4c3.2-7.5,1.7-16,1.4-23.9
	c-1.2-14.3-2.9-28.5-5.1-42.6c3.8-0.2,7.7-0.4,11.9-0.7c11.5-0.7,22.9-1.6,34.4-2.6c5.9,53.5,4.9,107.6,15.8,158.8
	c1.3-31,3.6-62.2,0.2-93.1c-2.2-22.5-8.2-44.4-15.8-65.6c12.5-1,25-2.2,37.5-3.3c3.1-0.2,6.1-0.5,8.9-0.7
	c2.9,26.2,2.9,53.3,10.7,78.6c11.6,19.8,40.9,10.6,59.4,8.6c5.9-0.9,11.8-2.1,17.7-3.3c-0.3,7-1.1,15.7-1.8,20.7
	c-0.1,2-1.6,5,1.4,6.9c8.1,3.6,15.8-4.7,18.5-11.7c1.3-3.4,1.7-7.1,1.2-10.7c5.2,6.4,12.3,10.5,22.6,10c21.3-1.2,62.9-4.5,71.3-3.5
	c7.2,1,12.3,1.1,21.8,3.3c0.1,0.1,0.2,0.1,0.3,0.1c6,6.3,5.6,9.4,11.8,26.5c0.6,1.9,1.3,3.8,2,5.8c-3.7,1.1-0.9,0.3-18.2,1.9
	c-3,0.3-7.1,0.1-5.9,0.4c-1.2-0.1-2.4-0.2-3.6-0.1c-6.7-0.3-2.3,0.3-13-1.8c-15.7-3.6-30.6-10.4-46.6-12.6
	c-40.8-8-55.8,32.3-66.9,40.7c-13.5,9.8-19,6.8-45.4,6.2c-51.6-1.1-103.3,0.4-154.9,2c-11.4,0.3-22.9,0.5-34.3-0.9
	c-6.9-1.2-13.7-3.3-20.2-6c-0.2-0.1-0.5-0.2-0.7-0.3c-18.3-8.3-36.5-18.6-57-19.2c-9.1-0.2-18.5,0.3-26.8,4.4
	c-7.5,4.2-13.6,10.6-18.9,17.3c-2.6,3.2-4.8,6.9-7.6,9.9c-0.1-0.4-0.2-0.8-0.3-1.1c0,0.5,0,1,0,1.5c-1.5,1.7-3.3,3.1-5.3,4.1
	c-1.7,0.9-3.5,1.6-5.3,2.1c1.6-0.2,3.2-0.4,4.7-0.8c2.1-0.5,4.1-1.4,6-2.6c0,13.4,0.1,27.4,6.5,39.5c8.7,16,28.7,19.9,43.1,9
	c9-6.8,13.2-18,15.6-28.7c2-8.5,3.3-17.2,2.7-26c-6.5,19.8-15.3,46.8-34.1,49c-23.3,2.6-27.8-24.5-32.8-43.6c1.4-1,2.7-2.1,3.9-3.2
	c15.7-15.8,27-22.6,44.7-18.4c21.5,3.2,37.3,18.9,59.5,29.4c22,10.6,47.2,10.3,71.1,11.3c40.4,1.4,80.8,1.6,121.2,0.4
	c30.8-0.9,63.6,6.8,87.3-18.3c7.4-7.6,12.9-16.9,20.9-23.9c0.1,0,0.1-0.1,0.1-0.1c1.6-0.6,3.3-1.1,5-1.5c0.5-0.1,1-0.1,1.5-0.2l0,0
	l0.1,0c0.8-0.1,1.6-0.2,2.5-0.3c0.8,0,2.6-0.1,4.3,0c1.8,0.3,4.8,0.9,6.5,1.4c14.5,3.4,28.7,9.6,43.3,12.6
	c1.7,30.1-16.9,65.8-40.4,76.5c-10.3,5.1-25.3,0.4-32.7-13.1c-7.7-12.3-10.3-31-12.6-48.1c-2,21.2-4.2,45.5,9.3,63.5
	c22.3,28.5,57.4,11.3,71.3-16.2c7.2-14,11.4-29.9,10.8-45.7c-0.4-5.6-1.5-11.2-3.4-16.5c6.1,1.2,12.3,1.5,18.4,1
	c8.9-1.1,54.2-2.4,58.4-22.2c1-4.5,0.5-9.2-1.6-13.3C685,450.1,687,455.2,682.8,443.9z M93.5,498.8c-0.6-0.1-0.5-1.8-0.5-4
	c0-4.8-0.5-12-0.4-15.6c5.9,0,14.4-1.9,21.6-4.2c2,9.5,3.3,18.8,4.5,28.3C110.3,502.6,101.6,501.8,93.5,498.8z M467.4,407.6
	c-6.4,0-12.4,0.2-18-1.7c-4.2-1.4-7.3-3.6-8.1-7.5c-6.6-23.5-11.6-47.4-19.4-70.6c13.1-1.1,23.5-2.1,31.6-0.6
	c6.5,1.8,19.4,7.7,32.3,16.7c2.1,1.8,4.1,3.8,6,5.8c8.2,8.9,3.7,3.6,9.7,11.9c11,18.1,10.8,20.5,17.6,37.7c0.9,2.5,1.9,5,3,7.3
	C504,406.1,485.7,407.2,467.4,407.6L467.4,407.6z M517.1,433c-2.1,1.3-2.8,1.8-5.4,2c0-7.8-0.8-15.6-2.2-23.3
	c4.6-1,9.3-1.9,13.9-2.8c0.4,0.8,0.9,1.5,1.3,2.3C526.6,419.7,523.3,428.4,517.1,433z M661.9,406.1c4.7-11.1,7.7-19,16.3-7.8
	c8.1,10.8,12.8,26.3,5.5,39.8c-0.6,0.9-1.3,1.8-2,2.6C675.3,424.3,672,414.2,661.9,406.1z"/>
<path d="M238,435.1c10.3,3.3,21.3,3.4,31.6,0.1C259,435.5,248.5,435.5,238,435.1z"/>
<path d="M433.1,439.1c6.8,1.1,13.7,1.1,20.4,0C446.8,438,439.9,438,433.1,439.1z"/>
<path d="M561.9,498.7c-1.5,1-2.8,2.1-4,3.4c2.1-1.2,4.5-2.8,7-2.3c3.2,0.4,5.4,3.1,6.8,5.9c2.4,4.1,2.6,10.8,1.9,14.7
	c-2,8.9-10.5,18.1-15.4,5c-2.7-5.4-5.1-15.8-2.7-23.4c-3.4,6.4-4.3,13.8-2.6,20.9c1.1,5.3,2.4,11.5,7.7,14.2
	c10.2,4.6,18.6-7.6,19-16.7C581.2,510.8,574,493.5,561.9,498.7z"/>
<path d="M175.8,500.9c-0.6-0.2-1.3-0.3-2-0.3c1.1,0.3,2,1,2.7,1.9c3.2,4.8,3.1,11.1-0.1,15.9c-3.1,5-9.2,3.8-10.2-2
	c-2.4-5.9-0.9-12.6,3.7-16.9c-5.9,3.2-9,9.8-7.7,16.3c0.4,2.7,0.6,5.7,2.7,7.8c3.4,3.9,9.3,4.2,13.2,0.8c0.9-0.8,1.6-1.7,2.1-2.7
	C184.4,515.3,182.9,504.6,175.8,500.9z"/>
<path class="st0" d="M492.9,390.2c1.2,3.9-40.3,11.8-43.7,12.7c4.9-13.8-0.7-43.1,12-53.4C476,337.5,489.8,380.5,492.9,390.2z"/>
<path class="st0" d="M131,210.3c-12.7,12-5.3,36,10.8,42.9s35.3-0.3,47.7-12.6s19.2-29,25.9-45.1c3.4-8.3-0.6-17.8-8.9-21.2
	c-5-2-10.7-1.5-15.2,1.5C168.4,190.9,142,199.9,131,210.3z"/>
<path d="M190.5,195.2c-1.6-14.1-12.4-27.4-27.5-26.5c-8,0.2-15.5,2.7-22.7,6.1c-2,0.3-4,0.8-6,1.4c-4.6,1.6-8.8,4.1-12.6,7.1
	c3.9-2,8-3.8,12.1-5.4c-1.6,0.9-3.3,1.7-4.9,2.6c7.5-3.1,15.3-5.5,23.2-7.2c2.6-0.5,5.2-0.7,7.8-0.7c3.4,0.1,5.9,0,8.9,1.1
	c9.7,3.3,14.2,13.4,15.5,20.6c1.1,5.9-1.6,14.7-3,18.2c-3.3,6.9-6.1,11.8-10.9,16c-2.4,2.2-7.2,4.1-12.5,5.8
	c-7.8,2.7-13.3,3-22.2,2.6c-7.2-0.5-18.6-6.2-23.4-15.7c-2.5-4.6-2.8-10.1-2-15.4c0.6-4.9,1.5-9.7,2.8-14.5
	c-2.7,6.5-4.6,13.3-5.7,20.3c-0.5,6.3,1.5,12.5,5.4,17.3c5.4,7.3,13.5,12.1,22.5,13.4c12.3,1.5,24.8-1.5,35.7-7.1
	C182.7,228.3,191.8,208.6,190.5,195.2z"/>
<path d="M4.8,559.5l290.8-0.9c96.9-0.3,193.8-0.6,290.8-0.9c54-0.2,108.1-0.3,162.1,2.8c6.4,0.4,6.4-9.6,0-10
	c-48.1-2.8-96.3-2.9-144.4-2.8c-48.4,0.1-96.9,0.3-145.3,0.5L168,549L4.8,549.5C-1.6,549.5-1.6,559.5,4.8,559.5L4.8,559.5z"/>
<path d="M664.5,549.4l39.8-55.1c12.9-17.9,26.3-35.6,38.8-53.8c10.9-15.9,21-34.7,18.5-54.6c-2.5-19.6-15.7-35.9-29.5-49.2
	c-27-26.2-61.3-42.8-92.4-63.2c-27.9-18.3-56-42.8-67-75c-2.8-7.9-4.3-16.2-4.6-24.6c-0.1-4,0.4-8,3.2-10.7c2.5-2.4,6.3-3.6,9.8-4.7
	c20.5-6.5,41.5-11.1,62.9-13.6c5.3-0.6,10.6-1.1,15.9-1.5c2.7-0.1,4.9-2.3,5-5c0-2.6-2.3-5.2-5-5c-21.9,1.6-43.7,5.1-65,10.7
	c-5.3,1.4-10.5,2.9-15.7,4.5c-4.3,1.3-8.7,2.8-12.3,5.4c-4.2,2.9-7.1,7.4-8.1,12.4c-0.8,4.8-0.8,9.6-0.1,14.4
	c3.9,36.2,28.7,65.6,56.4,87.3c29.5,23,63.9,38.6,93.5,61.4c14.3,11,28.6,24.2,37.3,40.2c4.6,8,6.7,17.2,6,26.5
	c-0.8,9.2-4.6,18-9,26c-4.9,8.9-10.9,17.1-16.8,25.3l-20,27.7l-40.1,55.4l-10,13.9c-1.6,2.2-0.4,5.6,1.8,6.8
	C660.1,552.6,662.9,551.6,664.5,549.4L664.5,549.4z"/>
<path d="M657.1,291.9c-16.5,1.3-33.2,1-49.6-1c-0.5-0.1-1-0.1-1.5-0.2c1,0.1-0.7-0.1-0.7-0.1c-1-0.1-2-0.3-3.1-0.5
	c-2-0.3-4.1-0.7-6.1-1c-4.1-0.7-8.1-1.6-12.1-2.6c-8-2-15.9-4.4-23.6-7.4c-1-0.4-1.9-0.7-2.9-1.1c-0.5-0.2-1-0.4-1.4-0.6
	c0,0-1.5-0.6-0.7-0.3c-1.9-0.8-3.8-1.6-5.6-2.5c-3.5-1.6-7-3.4-10.4-5.3c-6.3-3.5-12.3-7.3-18.1-11.6c-0.7-0.5-1.4-1.1-2.1-1.6
	c-0.1-0.1-1.3-1-0.4-0.3c-0.4-0.3-0.7-0.6-1.1-0.8c-1.4-1.1-2.8-2.2-4.2-3.4c-2.7-2.3-5.4-4.7-8-7.2c-5.1-5-9.9-10.3-14.3-15.9
	c-0.9-1.2,0.6,0.8-0.3-0.4c-0.3-0.4-0.5-0.7-0.8-1.1c-0.5-0.7-1.1-1.4-1.6-2.1c-1-1.4-2.1-2.9-3-4.4c-2-3-3.8-6-5.6-9.1
	c-1.7-3.1-3.4-6.2-4.9-9.5c-0.4-0.8-0.7-1.6-1.1-2.4c-0.2-0.4-0.4-0.8-0.5-1.2c-0.6-1.3,0.4,0.9-0.2-0.4c-0.7-1.6-1.3-3.3-1.9-5
	c-2.3-6.4-4.1-12.9-5.4-19.5c-0.3-1.6-0.6-3.2-0.8-4.9c0-0.2-0.2-1.6,0-0.3c0-0.3-0.1-0.5-0.1-0.8c-0.1-1-0.2-1.9-0.3-2.9
	c-0.3-3.3-0.5-6.5-0.6-9.8c-0.1-6.6,0.2-13.2,1-19.7c0.2-1.4-0.2,1.1,0-0.3c0.1-0.4,0.1-0.8,0.2-1.2c0.1-0.8,0.3-1.6,0.4-2.4
	c0.3-1.6,0.6-3.2,0.9-4.9c0.7-3.2,1.4-6.4,2.3-9.6c0.9-3.2,1.9-6.3,3-9.4c0.6-1.6,1.1-3.1,1.8-4.6c0.3-0.6,0.5-1.3,0.8-1.9
	c-0.5,1.1,0.1-0.2,0.1-0.3c0.2-0.5,0.4-1,0.7-1.5c2.7-6,5.8-11.9,9.3-17.4c1.8-2.8,3.6-5.5,5.6-8.2c0.5-0.7,1-1.3,1.5-2
	c-0.7,0.9,0.1-0.2,0.2-0.3c0.3-0.3,0.5-0.6,0.8-1c1-1.3,2.1-2.5,3.2-3.8c4.3-5,9-9.6,14-13.8c1.2-1,2.4-2,3.7-3
	c0.6-0.5-0.9,0.7,0.1-0.1c0.3-0.2,0.7-0.5,1-0.7c0.8-0.6,1.5-1.1,2.3-1.7c2.9-2.1,5.9-4,9-5.8c3.6-2.1,7.2-4,11-5.7
	c1.7-0.8,3.4-1.6,5.2-2.3c0.2-0.1,0.5-0.2,0.7-0.3c0.5-0.2,1-0.4,1.4-0.6c1.1-0.5,2.2-0.9,3.4-1.3c15.5-5.9,31.8-9.6,48.1-12.4
	c17.7-3,35.2-5,53.5-6.3c18.3-1.3,36.6-1.9,54.9-2c8.2-0.1,16.4-0.4,24.6,0.3c0.8,0.1,1.7,0.2,2.5,0.3c0.2,0,1,0.2-0.1,0
	c0.4,0.1,0.8,0.1,1.2,0.2c1.8,0.3,3.5,0.7,5.2,1.2c0.7,0.2,1.4,0.5,2.1,0.7c0.7,0.3-1.1-0.5,0.1,0c0.4,0.2,0.7,0.3,1.1,0.5
	c0.7,0.4,1.4,0.8,2,1.2c0.3,0.2,0.6,0.4,1,0.7c-1-0.8,0.3,0.3,0.5,0.5c0.5,0.5,1,1,1.5,1.6c0.2,0.2,0.7,1,0.1,0.1
	c0.3,0.4,0.5,0.7,0.8,1.1c0.2,0.4,0.5,0.8,0.7,1.2c0,0.1,0.7,1.5,0.3,0.5c0.4,1,0.7,2.1,1,3.2c0.2,0.9,0.4,1.7,0.5,2.6
	c0,0.2,0.2,1.3,0.1,0.4c0.1,0.5,0.1,1,0.2,1.5c0.2,2.1,0.3,4.2,0.3,6.4c0.2,8.7,0.2,17.5,0,26.2c-0.5,17.5-1.9,34.9-4.2,52.2
	c-0.1,0.5-0.1,0.9-0.3,1.9c-0.2,1.1-0.3,2.2-0.5,3.2c-0.3,2.3-0.7,4.7-1.1,7c-0.7,4.3-1.4,8.6-2.2,12.9c-1.6,8.6-3.4,17.1-5.5,25.6
	c-4.1,17-9,33.7-14.9,50.2c-5.5,15.5-10.6,29.8-19.6,43.8c-1.9,3.1-4.1,6.1-6.5,8.9c-2.5,2.9-5.1,5.6-8,8.1
	c-0.7,0.6-1.5,1.2-2.2,1.8c-1.2,1,0.8-0.5-0.5,0.4c-0.4,0.3-0.8,0.6-1.1,0.8c-1.5,1.1-3.1,2.2-4.8,3.2c-1.6,1-3.3,1.9-5,2.8
	c-0.8,0.4-1.7,0.8-2.6,1.2c-0.4,0.2-0.9,0.4-1.3,0.6c-1.1,0.5,0.4-0.2-0.6,0.2c-3.4,1.4-6.9,2.5-10.4,3.4c-1.8,0.4-3.7,0.8-5.6,1.1
	c-0.5,0.1-0.9,0.1-1.4,0.2c1.1-0.2-0.5,0-0.6,0.1c-0.9,0.1-1.9,0.2-2.8,0.3c-2.6,0.2-5.1,2.2-5,5c0.1,2.5,2.2,5.2,5,5
	c16.6-1.3,32.4-7.7,45.2-18.4c12.6-10.6,21-25.2,27.4-40.1c14.1-32.7,24-67.5,30.5-102.6c6.6-35.3,9.4-71.2,8.3-107
	c-0.3-8.4-1.6-17.2-8-23.3c-5.6-5.5-13.3-7.5-20.9-8.3c-8.1-0.9-16.3-0.6-24.4-0.5c-9.3,0.1-18.7,0.2-28,0.5
	c-18.7,0.6-37.3,1.9-55.9,4c-17.9,2.1-35.8,4.7-53.3,9.1c-16.8,4.2-33.3,10-48.2,18.7c-12.1,7.1-23,16.1-32.2,26.7
	c-18.3,21.3-30,47.6-33.6,75.5c-3.8,28.2,1.8,56.8,15.9,81.5c14.6,26,37.2,47.4,63.2,61.8c29.9,16.5,64.1,24,98,24.7
	c8.3,0.2,16.6-0.1,24.8-0.7c2.6-0.2,5.1-2.2,5-5C662,294.3,659.9,291.7,657.1,291.9L657.1,291.9z"/>
</svg>
