<?xml version="1.0" encoding="iso-8859-1"?>
<!-- Generator: Adobe Illustrator 16.0.0, SVG Export Plug-In . SVG Version: 6.00 Build 0)  -->
<!DOCTYPE svg PUBLIC "-//W3C//DTD SVG 1.1//EN" "http://www.w3.org/Graphics/SVG/1.1/DTD/svg11.dtd">
<svg version="1.1" id="Capa_1" xmlns="http://www.w3.org/2000/svg" xmlns:xlink="http://www.w3.org/1999/xlink" x="0px" y="0px"
	 width="235.511px" height="235.511px" viewBox="0 0 235.511 235.511" style="enable-background:new 0 0 235.511 235.511;"
	 xml:space="preserve">
<g>
	<g>
		<path d="M182.387,79.59c-4.088,0-7.43,3.374-7.43,7.478c0,22.171-10.251,42.831-28.089,56.693
			c-1.811,1.41-2.869,3.586-2.869,5.871v24.549H61.648v-24.549c0-2.285-1.044-4.461-2.855-5.871
			c-17.829-13.87-28.052-34.544-28.052-56.762c0-39.762,32.336-72.121,72.13-72.121c18.532,0,36.147,7.003,49.563,19.791
			c2.974,2.725,7.627,2.637,10.516-0.291c2.81-2.976,2.709-7.687-0.269-10.534C146.439,8.504,125.212,0,102.863,0
			c-47.981,0-87,39.034-87,87.075c0,25.556,11.221,49.448,30.916,66.079v28.456c0,4.092,3.346,7.434,7.443,7.434h97.23
			c4.092,0,7.434-3.342,7.434-7.434v-28.404c19.721-16.65,30.958-40.551,30.958-66.207C189.845,82.886,186.502,79.59,182.387,79.59z
			"/>
		<path d="M46.044,89.867c0,4.085,3.334,7.432,7.424,7.432c4.097,0,7.452-3.354,7.452-7.432c0-23.123,18.799-41.924,41.919-41.924
			c4.092,0,7.426-3.342,7.426-7.434c0-4.104-3.334-7.45-7.426-7.45C71.515,33.051,46.044,58.542,46.044,89.867z"/>
		<path d="M144.184,198.025H61.506c-4.089,0-7.432,3.342-7.432,7.434c0,4.111,3.342,7.438,7.432,7.438h82.677
			c4.088,0,7.43-3.326,7.43-7.438C151.613,201.367,148.295,198.025,144.184,198.025z"/>
		<path d="M136.225,220.623H69.453c-4.098,0-7.438,3.351-7.438,7.454c0,4.091,3.34,7.434,7.438,7.434h66.771
			c4.096,0,7.454-3.343,7.454-7.434C143.679,223.965,140.337,220.623,136.225,220.623z"/>
		<path d="M214.546,31.506L179.97,19.987c-4.092-1.335-8.127,0.801-9.397,4.696c-1.302,3.909,0.813,8.125,4.693,9.394l19.011,6.352
			l-119.73,67.004c-3.594,2.024-4.861,6.532-2.867,10.121c1.385,2.451,3.887,3.813,6.494,3.813c1.234,0,2.457-0.337,3.635-0.95
			L198.978,54.87l-5.282,15.824c-1.307,3.925,0.806,8.127,4.696,9.399c0.806,0.256,1.596,0.398,2.369,0.398
			c3.105,0,6.027-1.994,7.033-5.071l11.477-34.512C220.558,36.977,218.441,32.759,214.546,31.506z"/>
	</g>
</g>
<g>
</g>
<g>
</g>
<g>
</g>
<g>
</g>
<g>
</g>
<g>
</g>
<g>
</g>
<g>
</g>
<g>
</g>
<g>
</g>
<g>
</g>
<g>
</g>
<g>
</g>
<g>
</g>
<g>
</g>
</svg>
